<svg data-v-423bf9ae="" xmlns="http://www.w3.org/2000/svg" viewBox="0 0 851.184156737207 180" class="iconAbove"><!----><!----><!----><g data-v-423bf9ae="" id="a8a197ba-325e-49e4-b600-adaf049281c9" fill="white" transform="matrix(4.385964814437848,0,0,4.385964814437848,1.140346120292861,121.10251329252326)"><path d="M2.04 2.92L-0.15 2.92L-0.15 10.50L2.04 10.50L2.04 2.92ZM2.16 0.60Q2.16-0.41 0.95-0.41Q-0.26-0.41-0.26 0.60Q-0.26 1.60 0.95 1.60Q2.16 1.60 2.16 0.60ZM3.21 2.92L3.21 10.50L5.40 10.50L5.40 5.10Q5.40 4.23 6.56 4.23L6.56 4.23Q7.73 4.23 7.73 5.10L7.73 5.10L7.73 10.50L9.92 10.50L9.92 4.67Q9.92 2.77 7.66 2.77Q5.40 2.77 5.40 3.94L5.40 3.94L5.40 2.92L3.21 2.92ZM15.95 10.50L18.58 2.92L16.74 2.92L15.17 8.31L13.59 2.92L11.17 2.92L14.03 10.50L15.95 10.50ZM19.19 4.67L19.19 4.67L19.19 8.75Q19.19 10.65 22.55 10.65L22.55 10.65Q25.90 10.65 25.90 8.75L25.90 8.75L25.90 8.17L23.71 8.17L23.71 8.46Q23.71 9.19 22.55 9.19L22.55 9.19Q21.38 9.19 21.38 8.46L21.38 8.46L21.38 7.44L25.90 7.44L25.90 4.67Q25.90 2.77 22.55 2.77L22.55 2.77Q19.19 2.77 19.19 4.67ZM23.71 5.98L21.38 5.98L21.38 4.96Q21.38 4.23 22.55 4.23L22.55 4.23Q23.71 4.23 23.71 4.96L23.71 4.96L23.71 5.98ZM27.07 2.92L27.07 10.50L29.25 10.50L29.25 5.10Q29.25 4.23 30.42 4.23L30.42 4.23Q31.59 4.23 31.59 5.10L31.59 5.10L31.59 10.50L33.78 10.50L33.78 4.67Q33.78 2.77 31.51 2.77Q29.25 2.77 29.25 3.94L29.25 3.94L29.25 2.92L27.07 2.92ZM35.76 0.58L37.95 0.58L37.95 2.92L38.82 2.92L38.82 4.38L37.95 4.38L37.95 8.17Q37.95 9.04 38.82 9.04L38.82 9.04L38.82 10.50L37.80 10.50Q35.76 10.50 35.76 8.75L35.76 8.75L35.76 4.38L34.94 4.38L34.94 2.92L35.76 2.92L35.76 0.58ZM44.51 4.96L44.51 8.46Q44.51 9.19 43.34 9.19L43.34 9.19Q42.18 9.19 42.18 8.46L42.18 8.46L42.18 4.96Q42.18 4.23 43.34 4.23L43.34 4.23Q44.51 4.23 44.51 4.96L44.51 4.96ZM46.70 8.75L46.70 4.67Q46.70 2.77 43.34 2.77L43.34 2.77Q39.99 2.77 39.99 4.67L39.99 4.67L39.99 8.75Q39.99 10.65 43.34 10.65L43.34 10.65Q46.70 10.65 46.70 8.75L46.70 8.75ZM47.86 2.92L47.86 10.50L50.05 10.50L50.05 4.96Q50.05 4.23 50.82 4.23Q51.60 4.23 51.60 4.96L51.60 4.96L51.60 5.54L53.78 5.54L53.78 4.67Q53.78 2.77 51.92 2.77Q50.05 2.77 50.05 3.94L50.05 3.94L50.05 2.92L47.86 2.92ZM62.42 2.92L58.98 11.76Q58.50 13.27 57.32 13.27L57.32 13.27L56.23 13.27L56.23 11.81L56.99 11.81Q57.35 11.81 57.55 11.38L57.55 11.38L57.88 10.62L54.89 2.92L57.23 2.92L59.06 7.89L60.78 2.92L62.42 2.92ZM70.99 10.50L73.18 10.50L73.18-0.29L70.99-0.29L70.99 3.94Q70.99 2.77 68.73 2.77Q66.47 2.77 66.47 4.67L66.47 4.67L66.47 8.75Q66.47 10.65 68.73 10.65Q70.99 10.65 70.99 9.48L70.99 9.48L70.99 10.50ZM70.99 4.96L70.99 4.96L70.99 8.46Q70.99 9.19 69.83 9.19L69.83 9.19Q68.66 9.19 68.66 8.46L68.66 8.46L68.66 4.96Q68.66 4.23 69.83 4.23L69.83 4.23Q70.99 4.23 70.99 4.96ZM74.35 4.67L74.35 4.67L74.35 8.75Q74.35 10.65 77.70 10.65L77.70 10.65Q81.05 10.65 81.05 8.75L81.05 8.75L81.05 8.17L78.87 8.17L78.87 8.46Q78.87 9.19 77.70 9.19L77.70 9.19Q76.53 9.19 76.53 8.46L76.53 8.46L76.53 7.44L81.05 7.44L81.05 4.67Q81.05 2.77 77.70 2.77L77.70 2.77Q74.35 2.77 74.35 4.67ZM78.87 5.98L76.53 5.98L76.53 4.96Q76.53 4.23 77.70 4.23L77.70 4.23Q78.87 4.23 78.87 4.96L78.87 4.96L78.87 5.98ZM82.22 2.92L82.22 10.50L84.41 10.50L84.41 5.10Q84.41 4.23 85.36 4.23Q86.30 4.23 86.30 5.10L86.30 5.10L86.30 10.50L88.43 10.50L88.43 5.10Q88.43 4.23 89.37 4.23Q90.30 4.23 90.30 5.10L90.30 5.10L90.30 10.50L92.49 10.50L92.49 4.67Q92.49 2.77 90.52 2.77Q88.56 2.77 88.14 3.70L88.14 3.70Q87.82 2.77 86.11 2.77Q84.41 2.77 84.41 3.94L84.41 3.94L84.41 2.92L82.22 2.92ZM97.59 9.71Q97.59 10.65 96.37 10.65L96.37 10.65Q93.65 10.65 93.65 8.75L93.65 8.75L93.65 7.76Q93.65 5.80 96.72 5.80L96.72 5.80Q97.59 5.80 97.59 5.25L97.59 5.25L97.59 4.96Q97.59 4.23 96.72 4.23L96.72 4.23Q96.05 4.23 96.05 4.96L96.05 4.96L96.05 5.25L93.86 5.25L93.86 4.67Q93.86 2.77 96.72 2.77L96.72 2.77Q99.78 2.77 99.78 4.67L99.78 4.67L99.78 9.48Q99.78 10.50 100.36 10.50L100.36 10.50L98.18 10.50Q97.59 10.50 97.59 9.71L97.59 9.71ZM97.59 6.82Q97.59 7.26 96.72 7.26L96.72 7.26Q95.84 7.26 95.84 8.05L95.84 8.05L95.84 8.46Q95.84 9.19 96.72 9.19L96.72 9.19Q97.59 9.19 97.59 8.10L97.59 8.10L97.59 6.82ZM100.95 2.92L100.95 10.50L103.13 10.50L103.13 5.10Q103.13 4.23 104.30 4.23L104.30 4.23Q105.47 4.23 105.47 5.10L105.47 5.10L105.47 10.50L107.65 10.50L107.65 4.67Q107.65 2.77 105.39 2.77Q103.13 2.77 103.13 3.94L103.13 3.94L103.13 2.92L100.95 2.92ZM113.34 10.50L115.53 10.50L115.53-0.29L113.34-0.29L113.34 3.94Q113.34 2.77 111.08 2.77Q108.82 2.77 108.82 4.67L108.82 4.67L108.82 8.75Q108.82 10.65 111.08 10.65Q113.34 10.65 113.34 9.48L113.34 9.48L113.34 10.50ZM113.34 4.96L113.34 4.96L113.34 8.46Q113.34 9.19 112.18 9.19L112.18 9.19Q111.01 9.19 111.01 8.46L111.01 8.46L111.01 4.96Q111.01 4.23 112.18 4.23L112.18 4.23Q113.34 4.23 113.34 4.96ZM121.01 10.50L123.20 10.50L123.20 4.38L124.08 4.38L124.08 2.92L123.20 2.92L123.20 1.90Q123.20 1.17 124.08 1.17L124.08 1.17L124.08-0.29L122.70-0.29Q121.01-0.29 121.01 1.46L121.01 1.46L121.01 2.92L120.34 2.92L120.34 4.38L121.01 4.38L121.01 10.50ZM129.62 4.96L129.62 8.46Q129.62 9.19 128.45 9.19L128.45 9.19Q127.28 9.19 127.28 8.46L127.28 8.46L127.28 4.96Q127.28 4.23 128.45 4.23L128.45 4.23Q129.62 4.23 129.62 4.96L129.62 4.96ZM131.80 8.75L131.80 4.67Q131.80 2.77 128.45 2.77L128.45 2.77Q125.10 2.77 125.10 4.67L125.10 4.67L125.10 8.75Q125.10 10.65 128.45 10.65L128.45 10.65Q131.80 10.65 131.80 8.75L131.80 8.75ZM132.97 2.92L132.97 10.50L135.16 10.50L135.16 4.96Q135.16 4.23 135.93 4.23Q136.70 4.23 136.70 4.96L136.70 4.96L136.70 5.54L138.89 5.54L138.89 4.67Q138.89 2.77 137.03 2.77Q135.16 2.77 135.16 3.94L135.16 3.94L135.16 2.92L132.97 2.92ZM139.91 4.67L139.91 4.67L139.91 8.75Q139.91 10.65 143.27 10.65L143.27 10.65Q146.62 10.65 146.62 8.75L146.62 8.75L146.62 8.17L144.43 8.17L144.43 8.46Q144.43 9.19 143.27 9.19L143.27 9.19Q142.10 9.19 142.10 8.46L142.10 8.46L142.10 7.44L146.62 7.44L146.62 4.67Q146.62 2.77 143.27 2.77L143.27 2.77Q139.91 2.77 139.91 4.67ZM144.43 5.98L142.10 5.98L142.10 4.96Q142.10 4.23 143.27 4.23L143.27 4.23Q144.43 4.23 144.43 4.96L144.43 4.96L144.43 5.98ZM154.50 8.75L154.50 7.58L152.16 7.58L152.16 8.46Q152.16 9.19 151.14 9.19L151.14 9.19Q149.97 9.19 149.97 8.46L149.97 8.46L149.97 4.96Q149.97 4.23 151.14 4.23L151.14 4.23Q152.16 4.23 152.16 4.96L152.16 4.96L152.16 5.83L154.50 5.83L154.50 4.67Q154.50 2.77 151.14 2.77L151.14 2.77Q147.79 2.77 147.79 4.67L147.79 4.67L147.79 8.75Q147.79 10.65 151.14 10.65L151.14 10.65Q154.50 10.65 154.50 8.75L154.50 8.75ZM159.60 9.71Q159.60 10.65 158.38 10.65L158.38 10.65Q155.66 10.65 155.66 8.75L155.66 8.75L155.66 7.76Q155.66 5.80 158.72 5.80L158.72 5.80Q159.60 5.80 159.60 5.25L159.60 5.25L159.60 4.96Q159.60 4.23 158.72 4.23L158.72 4.23Q158.05 4.23 158.05 4.96L158.05 4.96L158.05 5.25L155.87 5.25L155.87 4.67Q155.87 2.77 158.72 2.77L158.72 2.77Q161.79 2.77 161.79 4.67L161.79 4.67L161.79 9.48Q161.79 10.50 162.37 10.50L162.37 10.50L160.18 10.50Q159.60 10.50 159.60 9.71L159.60 9.71ZM159.60 6.82Q159.60 7.26 158.72 7.26L158.72 7.26Q157.85 7.26 157.85 8.05L157.85 8.05L157.85 8.46Q157.85 9.19 158.72 9.19L158.72 9.19Q159.60 9.19 159.60 8.10L159.60 8.10L159.60 6.82ZM165.29 5.10L165.29 5.10L165.29 4.96Q165.29 4.23 166.31 4.23L166.31 4.23Q167.33 4.23 167.33 4.96L167.33 4.96L167.33 5.54L169.52 5.54L169.52 4.67Q169.52 2.77 166.31 2.77L166.31 2.77Q163.10 2.77 163.10 4.67L163.10 4.67L163.10 5.40Q163.10 7.17 166.31 7.50L166.31 7.50Q167.47 7.66 167.47 8.31L167.47 8.31L167.47 8.46Q167.47 9.19 166.31 9.19L166.31 9.19Q165.14 9.19 165.14 8.46L165.14 8.46L165.14 7.88L162.95 7.88L162.95 8.75Q162.95 10.65 166.31 10.65L166.31 10.65Q169.66 10.65 169.66 8.75L169.66 8.75L169.66 7.73Q169.66 6.11 166.31 5.83L166.31 5.83Q165.29 5.68 165.29 5.10ZM171.65 0.58L173.83 0.58L173.83 2.92L174.71 2.92L174.71 4.38L173.83 4.38L173.83 8.17Q173.83 9.04 174.71 9.04L174.71 9.04L174.71 10.50L173.69 10.50Q171.65 10.50 171.65 8.75L171.65 8.75L171.65 4.38L170.83 4.38L170.83 2.92L171.65 2.92L171.65 0.58ZM178.06 2.92L175.87 2.92L175.87 10.50L178.06 10.50L178.06 2.92ZM178.18 0.60Q178.18-0.41 176.97-0.41Q175.76-0.41 175.76 0.60Q175.76 1.60 176.97 1.60Q178.18 1.60 178.18 0.60ZM179.23 2.92L179.23 10.50L181.42 10.50L181.42 5.10Q181.42 4.23 182.58 4.23L182.58 4.23Q183.75 4.23 183.75 5.10L183.75 5.10L183.75 10.50L185.94 10.50L185.94 4.67Q185.94 2.77 183.68 2.77Q181.42 2.77 181.42 3.94L181.42 3.94L181.42 2.92L179.23 2.92ZM191.62 2.92L193.81 2.92L193.81 11.67Q193.81 13.27 190.46 13.27L190.46 13.27Q187.10 13.27 187.10 11.67L187.10 11.67L187.10 11.23L189.29 11.23L189.29 11.38Q189.29 11.81 190.46 11.81L190.46 11.81Q191.62 11.81 191.62 11.38L191.62 11.38L191.62 9.48Q191.62 10.65 189.36 10.65Q187.10 10.65 187.10 8.75L187.10 8.75L187.10 4.67Q187.10 2.77 189.36 2.77Q191.62 2.77 191.62 3.94L191.62 3.94L191.62 2.92ZM191.62 8.46L191.62 8.46L191.62 4.96Q191.62 4.23 190.46 4.23L190.46 4.23Q189.29 4.23 189.29 4.96L189.29 4.96L189.29 8.46Q189.29 9.19 190.46 9.19L190.46 9.19Q191.62 9.19 191.62 8.46Z"></path></g><!----><g data-v-423bf9ae="" id="4f741724-4721-4040-9291-e5fcd174ebad" transform="matrix(1.0868111504448785,0,0,1.0868111504448785,370.744749553976,-0.23894260335429607)" stroke="none" fill="white"><g clip-rule="evenodd"><path d="M12.983 10.59l17.018 88.223-5.872-59.049 29.021-1.892-.054-9.883L64.549 1 53.622 18.977z"></path><path d="M59.389 54.548l5.16-53.541-8.74 39.716-19.612 1.045 1.57 20.462-7.766 36.583 12.057-39.899z"></path><path d="M62.8 67.182l.549-10.453-15.979 3.755-.032 11.797-17.337 26.532 21.68-27.616zM65.711 62.394l14.841-4.731 1.509-12.532-15.899 2.095zM72.07 44.502l10.988-1.417 1.581-10.278-8.079-.373L64.549 1l8.43 30.967z"></path><path d="M87.413 31.294l1.256-9.506-9.544-2.694L64.549 1l14.483 22.437-.422 7z"></path></g></g><!----></svg>